# File created by Blade
# Date/Time:  Tue Jan 27 17:09:01 2015
#---------------------------------------------------------
:version 1.10
:name HOM
:units
  mass 1.0
  length 1.000000
  angle deg
:documentation
     Acclaim Skeleton File
:root
   axis xyz
   order TX TY TZ RX RY RZ
   position 0.000000 0.000000 0.000000
   orientation 0 0 0
:bonedata
   begin
      id 1
      name Spine_dum
      direction 0.000000 1.000000 0.000000
      length 7.539951
      axis 0.0 0.0 0.0 xyz
   end
   begin
      id 2
      name LeftUpLeg_dum
      direction 1.000000 0.000000 0.000000
      length 3.345476
      axis 0.0 0.0 0.0 xyz
   end
   begin
      id 3
      name RightUpLeg_dum
      direction -1.000000 0.000000 0.000000
      length 3.345476
      axis 0.0 0.0 0.0 xyz
   end
   begin
      id 4
      name Spine
      direction 0.000000 1.000000 0.000000
      length 0.000000
      axis 0.0 0.0 0.0 xyz
      dof rx ry rz
   end
   begin
      id 5
      name Spine_dum1
      direction 0.000000 1.000000 0.000000
      length 15.093809
      axis 0.0 0.0 0.0 xyz
   end
   begin
      id 6
      name Spine_dum2
      direction 0.000000 1.000000 0.000000
      length 9.738928
      axis 0.0 0.0 0.0 xyz
   end
   begin
      id 7
      name Spine_dum3
      direction 0.000000 1.000000 0.000000
      length 9.738928
      axis 0.0 0.0 0.0 xyz
   end
   begin
      id 8
      name Head
      direction 0.000000 1.000000 0.000000
      length 4.527550
      axis 0.0 0.0 0.0 xyz
      dof rx ry rz
   end
   begin
      id 9
      name LeftShoulder
      direction 1.000000 0.000000 0.000000
      length 7.084015
      axis 0.0 0.0 -90.0 xyz
      dof rx ry rz
   end
   begin
      id 10
      name LeftArm
      direction 1.000000 0.000000 0.000000
      length 10.259319
      axis 0.0 0.0 -90.0 xyz
      dof rx ry rz
   end
   begin
      id 11
      name LeftForeArm
      direction 1.000000 0.000000 0.000000
      length 9.896984
      axis 0.0 0.0 -90.0 xyz
      dof ry rz rx
   end
   begin
      id 12
      name LeftHand
      direction 0.000000 0.000000 0.000000
      length 0.000000
      axis 0.0 0.0 -90.0 xyz
      dof rx ry rz
   end
   begin
      id 13
      name LeftHand_dum1
      direction 0.000000 0.000000 0.000000
      length 0.000000
      axis 0.0 0.0 -90.0 xyz
   end
   begin
      id 14
      name LeftHand_dum2
      direction 1.000000 0.000000 0.000000
      length 3.937000
      axis 0.0 0.0 -90.0 xyz
   end
   begin
      id 15
      name LeftHandThumb1
      direction 0.000000 0.000000 1.000000
      length 3.937000
      axis 0.0 0.0 -90.0 xyz
      dof rx rz ry
   end
   begin
      id 16
      name RightShoulder
      direction -1.000000 0.000000 0.000000
      length 7.084015
      axis 0.0 0.0 90.0 xyz
      dof rx ry rz
   end
   begin
      id 17
      name RightArm
      direction -1.000000 0.000000 0.000000
      length 10.259319
      axis 0.0 0.0 90.0 xyz
      dof rx ry rz
   end
   begin
      id 18
      name RightForeArm
      direction -1.000000 0.000000 0.000000
      length 9.896984
      axis 0.0 0.0 90.0 xyz
      dof ry rz rx
   end
   begin
      id 19
      name RightHand
      direction 0.000000 0.000000 0.000000
      length 0.000000
      axis 0.0 0.0 90.0 xyz
      dof rx ry rz
   end
   begin
      id 20
      name RightHand_dum1
      direction 0.000000 0.000000 0.000000
      length 0.000000
      axis 0.0 0.0 90.0 xyz
   end
   begin
      id 21
      name RightHand_dum2
      direction -1.000000 0.000000 0.000000
      length 3.937000
      axis 0.0 0.0 90.0 xyz
   end
   begin
      id 22
      name RightHandThumb1
      direction 0.000000 0.000000 1.000000
      length 3.937000
      axis 0.0 0.0 90.0 xyz
      dof rx rz ry
   end
   begin
      id 23
      name LeftUpLeg
      direction 0.000000 -1.000000 0.000000
      length 19.114733
      axis 0.0 0.0 0.0 xyz
      dof rx ry rz
   end
   begin
      id 24
      name LeftLeg
      direction 0.000000 -1.000000 0.000000
      length 16.045604
      axis 0.0 0.0 0.0 xyz
      dof rx ry rz
   end
   begin
      id 25
      name LeftFoot
      direction 0.000000 -0.258819 0.965926
      length 5.543155
      axis 15.0 0.0 0.0 xyz
      dof rx ry rz
   end
   begin
      id 26
      name LeftToeBase
      direction 0.000000 0.000000 1.000000
      length 2.952750
      axis 0.0 0.0 0.0 xyz
      dof rx ry rz
   end
   begin
      id 27
      name RightUpLeg
      direction 0.000000 -1.000000 0.000000
      length 19.114733
      axis 0.0 0.0 0.0 xyz
      dof rx ry rz
   end
   begin
      id 28
      name RightLeg
      direction 0.000000 -1.000000 0.000000
      length 16.045604
      axis 0.0 0.0 0.0 xyz
      dof rx ry rz
   end
   begin
      id 29
      name RightFoot
      direction 0.000000 -0.258819 0.965926
      length 5.543155
      axis 15.0 0.0 0.0 xyz
      dof rx ry rz
   end
   begin
      id 30
      name RightToeBase
      direction 0.000000 0.000000 1.000000
      length 2.952750
      axis 0.0 0.0 0.0 xyz
      dof rx ry rz
   end
:hierarchy
   begin
      root Spine_dum LeftUpLeg_dum RightUpLeg_dum
      Spine_dum Spine
      LeftUpLeg_dum LeftUpLeg
      RightUpLeg_dum RightUpLeg
      Spine Spine_dum1 Spine_dum2 Spine_dum3
      Spine_dum1 Head
      Spine_dum2 LeftShoulder
      Spine_dum3 RightShoulder
      LeftShoulder LeftArm
      LeftArm LeftForeArm
      LeftForeArm LeftHand
      LeftHand LeftHand_dum1 LeftHand_dum2
      LeftHand_dum1 LeftHandThumb1
      RightShoulder RightArm
      RightArm RightForeArm
      RightForeArm RightHand
      RightHand RightHand_dum1 RightHand_dum2
      RightHand_dum1 RightHandThumb1
      LeftUpLeg LeftLeg
      LeftLeg LeftFoot
      LeftFoot LeftToeBase
      RightUpLeg RightLeg
      RightLeg RightFoot
      RightFoot RightToeBase
   end

# File created by Blade
# Date/Time:  Tue Jan 27 17:08:52 2015
# Frame Rate: 120.000 fps
#------------------------------------------------------
:FULLY-SPECIFIED
:DEGREES
2160
root 0.396868 36.464065 -0.124688 -1.122804 -15.609769 -13.715479
Spine 12.080704 11.386938 12.475550
Head -6.159780 -17.856776 4.740972
LeftShoulder -5.798713 -5.337083 3.549795
LeftArm -16.829287 -29.612009 -46.898578
LeftForeArm 16.789829 0.000000 126.218657
LeftHand -21.398392 -0.000000 31.056591
LeftHandThumb1 -26.253704 0.000000 33.147579
RightShoulder 0.242840 -19.452844 -1.979566
RightArm 9.878985 2.215734 62.778670
RightForeArm 201.581577 -0.000000 33.542939
RightHand 1.100664 -0.000000 8.770083
RightHandThumb1 -24.326973 -0.000000 -32.862282
LeftUpLeg -9.091462 15.676308 7.324455
LeftLeg 31.571738 -0.000000 -0.000000
LeftFoot -28.723498 14.529918 -10.143679
LeftToeBase 12.011978 -0.000000 -0.000000
RightUpLeg -84.306852 -27.889906 12.240652
RightLeg 87.787563 -0.000000 -0.000000
RightFoot -3.788613 -12.163084 11.654649
RightToeBase 6.174185 -0.000000 -0.000000
2161
root 0.397560 36.457827 -0.120493 -1.117869 -15.688908 -13.645539
Spine 12.077656 11.408964 12.379182
Head -6.100485 -17.645228 4.701436
LeftShoulder -5.796796 -5.360120 3.535220
LeftArm -16.836421 -29.684624 -46.863806
LeftForeArm 16.746951 -0.000000 126.262700
LeftHand -21.419076 0.000000 30.928513
LeftHandThumb1 -26.253704 0.000000 33.147579
RightShoulder 0.218050 -19.463248 -1.957614
RightArm 9.848971 2.219067 62.803048
RightForeArm 201.626179 -0.000000 33.486192
RightHand 1.092407 -0.000000 8.774069
RightHandThumb1 -24.326973 -0.000000 -32.862282
LeftUpLeg -9.097652 15.695733 7.245510
LeftLeg 31.580999 -0.000000 -0.000000
LeftFoot -28.756037 14.572311 -10.193063
LeftToeBase 11.963626 -0.000000 -0.000000
RightUpLeg -84.531183 -28.080116 12.778053
RightLeg 88.341693 -0.000000 -0.000000
RightFoot -3.830896 -12.238840 11.964954
RightToeBase 5.774577 -0.000000 -0.000000
2162
root 0.399187 36.452216 -0.114040 -1.116602 -15.762269 -13.555628
Spine 12.059868 11.423672 12.263492
Head -6.021862 -17.443697 4.610804
LeftShoulder -5.816437 -5.386297 3.524969
LeftArm -16.827915 -29.712974 -46.853115
LeftForeArm 16.770423 -0.000000 126.280587
LeftHand -21.381300 -0.000000 30.846911
LeftHandThumb1 -26.253704 0.000000 33.147579
RightShoulder 0.199302 -19.471250 -1.937154
RightArm 9.801035 2.241592 62.833189
RightForeArm 201.614929 0.000000 33.440628
RightHand 1.151210 -0.000000 8.806618
RightHandThumb1 -24.326973 -0.000000 -32.862282
LeftUpLeg -9.095987 15.700174 7.144968
LeftLeg 31.573283 -0.000000 -0.000000
LeftFoot -28.780576 14.654538 -10.198299
LeftToeBase 11.962222 -0.000000 -0.000000
RightUpLeg -84.738404 -28.265563 13.247651
RightLeg 89.028790 -0.000000 -0.000000
RightFoot -3.819054 -12.277087 12.249987
RightToeBase 5.718535 -0.000000 -0.000000
2163
root 0.399966 36.450005 -0.107022 -1.087865 -15.835622 -13.508884
Spine 12.011072 11.435516 12.221617
Head -5.938696 -17.350748 4.378086
LeftShoulder -5.831511 -5.413580 3.466679
LeftArm -16.838612 -29.724344 -46.812182
LeftForeArm 16.871986 0.000000 126.295657
LeftHand -21.420132 0.000000 30.736927
LeftHandThumb1 -26.253704 0.000000 33.147579
RightShoulder 0.178736 -19.493746 -1.941108
RightArm 9.746897 2.272134 62.870382
RightForeArm 201.563158 0.000000 33.386724
RightHand 1.193451 -0.000000 8.738261
RightHandThumb1 -24.326973 -0.000000 -32.862282
LeftUpLeg -9.106012 15.711215 7.086890
LeftLeg 31.561711 -0.000000 -0.000000
LeftFoot -28.795462 14.712524 -10.211140
LeftToeBase 11.960428 -0.000000 -0.000000
RightUpLeg -84.925441 -28.425580 13.714586
RightLeg 89.820509 -0.000000 -0.000000
RightFoot -3.635225 -12.281387 12.390444
RightToeBase 5.725820 -0.000000 -0.000000
2164
root 0.398204 36.446517 -0.097107 -1.071389 -15.910130 -13.434882
Spine 11.952136 11.465069 12.131139
Head -5.811333 -17.193395 4.255545
LeftShoulder -5.842634 -5.429043 3.443354
LeftArm -16.839332 -29.741887 -46.785336
LeftForeArm 16.930811 -0.000000 126.293687
LeftHand -21.450688 -0.000000 30.642620
LeftHandThumb1 -26.253704 0.000000 33.147579
RightShoulder 0.143370 -19.520626 -1.921293
RightArm 9.696935 2.286091 62.917671
RightForeArm 201.607532 -0.000000 33.312270
RightHand 1.136324 -0.000000 8.770201
RightHandThumb1 -24.326973 -0.000000 -32.862282
LeftUpLeg -9.106103 15.735127 7.009275
LeftLeg 31.553964 -0.000000 -0.000000
LeftFoot -28.822773 14.745408 -10.230895
LeftToeBase 11.968156 -0.000000 -0.000000
RightUpLeg -85.102777 -28.584903 14.133533
RightLeg 90.746385 -0.000000 -0.000000
RightFoot -3.338004 -12.255420 12.533731
RightToeBase 5.550644 -0.000000 -0.000000
2165
root 0.398147 36.445260 -0.088463 -1.030927 -15.986568 -13.374984
Spine 11.870369 11.484035 12.074024
Head -5.685993 -17.075891 4.036358
LeftShoulder -5.867431 -5.432570 3.391375
LeftArm -16.829606 -29.745500 -46.759466
LeftForeArm 16.912958 0.000000 126.285808
LeftHand -21.455728 0.000000 30.615492
LeftHandThumb1 -26.253704 0.000000 33.147579
RightShoulder 0.108163 -19.564606 -1.920703
RightArm 9.681339 2.319350 62.956264
RightForeArm 201.593296 -0.000000 33.216312
RightHand 1.173568 -0.000000 8.624257
RightHandThumb1 -24.326973 -0.000000 -32.862282
LeftUpLeg -9.122885 15.756506 6.934496
LeftLeg 31.525065 -0.000000 -0.000000
LeftFoot -28.793398 14.833100 -10.202407
LeftToeBase 11.880479 -0.000000 -0.000000
RightUpLeg -85.226287 -28.687253 14.452852
RightLeg 91.779884 -0.000000 -0.000000
RightFoot -2.925225 -12.143905 12.655446
RightToeBase 5.430793 -0.000000 -0.000000
2166
root 0.397610 36.445349 -0.079555 -0.986012 -16.058934 -13.330607
Spine 11.783255 11.493088 12.042985
Head -5.556318 -16.883096 3.808634
LeftShoulder -5.884232 -5.448581 3.335431
LeftArm -16.870897 -29.744718 -46.720540
LeftForeArm 16.905462 -0.000000 126.281338
LeftHand -21.392895 -0.000000 30.494689
LeftHandThumb1 -26.253704 0.000000 33.147579
RightShoulder 0.090196 -19.600786 -1.932466
RightArm 9.633370 2.334894 62.987962
RightForeArm 201.489212 -0.000000 33.130259
RightHand 1.194855 -0.000000 8.663556
RightHandThumb1 -24.326973 -0.000000 -32.862282
LeftUpLeg -9.139244 15.777851 6.876878
LeftLeg 31.497700 -0.000000 -0.000000
LeftFoot -28.797599 14.875967 -10.222130
LeftToeBase 11.904243 -0.000000 -0.000000
RightUpLeg -85.386553 -28.810043 14.850569
RightLeg 92.909070 -0.000000 -0.000000
RightFoot -2.411964 -12.162251 12.746192
RightToeBase 5.315722 -0.000000 -0.000000
2167
root 0.397651 36.445378 -0.069301 -0.939111 -16.124914 -13.291329
Spine 11.693515 11.500819 12.031743
Head -5.454864 -16.718245 3.558364
LeftShoulder -5.925309 -5.449048 3.278870
LeftArm -16.854640 -29.722006 -46.727825
LeftForeArm 16.978674 -0.000000 126.255067
LeftHand -21.375435 -0.000000 30.443953
LeftHandThumb1 -26.253704 0.000000 33.147579
RightShoulder 0.069520 -19.640245 -1.954954
RightArm 9.576286 2.357644 63.027144
RightForeArm 201.478724 -0.000000 33.058962
RightHand 1.184605 -0.000000 8.624934
RightHandThumb1 -24.326973 -0.000000 -32.862282
LeftUpLeg -9.148139 15.773080 6.824214
LeftLeg 31.458217 -0.000000 -0.000000
LeftFoot -28.808888 14.926043 -10.233951
LeftToeBase 11.894322 -0.000000 -0.000000
RightUpLeg -85.490596 -28.908694 15.142925
RightLeg 94.167362 -0.000000 -0.000000
RightFoot -1.906943 -11.999908 12.746095
RightToeBase 5.392240 -0.000000 -0.000000
2168
root 0.397957 36.445855 -0.058834 -0.879452 -16.198289 -13.229396
Spine 11.579624 11.532787 11.992218
Head -5.332577 -16.553824 3.339705
LeftShoulder -5.956120 -5.463083 3.234656
LeftArm -16.842331 -29.679150 -46.751507
LeftForeArm 17.061382 -0.000000 126.224038
LeftHand -21.340707 -0.000000 30.280792
LeftHandThumb1 -26.253704 0.000000 33.147579
RightShoulder 0.035672 -19.696346 -1.964703
RightArm 9.535393 2.392047 63.071444
RightForeArm 201.445460 -0.000000 32.998716
RightHand 1.281737 -0.000000 8.660922
RightHandThumb1 -24.326973 -0.000000 -32.862282
LeftUpLeg -9.172657 15.772901 6.742038
LeftLeg 31.413915 -0.000000 -0.000000
LeftFoot -28.843089 14.919682 -10.351592
LeftToeBase 11.942865 -0.000000 -0.000000
RightUpLeg -85.614136 -28.991913 15.412511
RightLeg 95.536409 -0.000000 -0.000000
RightFoot -1.340140 -11.863565 12.784722
RightToeBase 5.347359 -0.000000 -0.000000
2169
root 0.397489 36.448199 -0.047038 -0.821108 -16.294008 -13.186656
Spine 11.475025 11.599602 11.989017
Head -5.218901 -16.390752 3.111334
LeftShoulder -5.965365 -5.477070 3.182653
LeftArm -16.831794 -29.599685 -46.774361
LeftForeArm 17.180533 -0.000000 126.172453
LeftHand -21.439769 0.000000 30.416611
LeftHandThumb1 -26.253704 0.000000 33.147579
RightShoulder -0.007516 -19.737950 -1.982029
RightArm 9.474276 2.404733 63.107895
RightForeArm 201.454972 -0.000000 32.885888
RightHand 1.206691 0.000000 8.559141
RightHandThumb1 -24.326973 -0.000000 -32.862282
LeftUpLeg -9.175878 15.777447 6.684472
LeftLeg 31.351913 -0.000000 -0.000000
LeftFoot -28.818145 15.020557 -10.311810
LeftToeBase 11.904921 -0.000000 -0.000000
RightUpLeg -85.706622 -29.019067 15.673996
RightLeg 97.011176 -0.000000 -0.000000
RightFoot -0.817295 -11.817685 12.937292
RightToeBase 5.622985 -0.000000 -0.000000
2170
root 0.399187 36.450916 -0.035252 -0.755366 -16.396368 -13.137221
Spine 11.365338 11.663274 11.994790
Head -5.116574 -16.232286 2.859717
LeftShoulder -5.969336 -5.507082 3.113136
LeftArm -16.880815 -29.550035 -46.760426
LeftForeArm 17.221655 -0.000000 126.133077
LeftHand -21.404849 -0.000000 30.234578
LeftHandThumb1 -26.253704 0.000000 33.147579
RightShoulder -0.045321 -19.784520 -2.013645
RightArm 9.432091 2.398501 63.133510
RightForeArm 201.455067 -0.000000 32.790646
RightHand 1.222665 -0.000000 8.496392
RightHandThumb1 -24.326973 -0.000000 -32.862282
LeftUpLeg -9.186255 15.761873 6.611137
LeftLeg 31.282450 -0.000000 -0.000000
LeftFoot -28.843378 15.076897 -10.384619
LeftToeBase 11.980071 -0.000000 -0.000000
RightUpLeg -85.770552 -29.021674 15.880013
RightLeg 98.555760 -0.000000 -0.000000
RightFoot -0.281542 -11.709518 12.743283
RightToeBase 5.991394 -0.000000 -0.000000
2171
root 0.400097 36.454616 -0.024411 -0.679208 -16.515531 -13.099225
Spine 11.256494 11.715124 12.007785
Head -5.047290 -16.044415 2.606693
LeftShoulder -6.017421 -5.503905 3.028647
LeftArm -16.871519 -29.514752 -46.736620
LeftForeArm 17.286961 -0.000000 126.078006
LeftHand -21.451779 -0.000000 30.237865
LeftHandThumb1 -26.253704 0.000000 33.147579
RightShoulder -0.053607 -19.818605 -2.047548
RightArm 9.380119 2.367415 63.134754
RightForeArm 201.428508 0.000000 32.680008
RightHand 1.185290 -0.000000 8.455191
RightHandThumb1 -24.326973 -0.000000 -32.862282
LeftUpLeg -9.197184 15.738367 6.547535
LeftLeg 31.206090 -0.000000 -0.000000
LeftFoot -28.809810 15.218807 -10.355890
LeftToeBase 11.924624 -0.000000 -0.000000
RightUpLeg -85.800907 -28.985262 16.059010
RightLeg 100.173291 -0.000000 -0.000000
RightFoot 0.262394 -11.563391 12.413689
RightToeBase 6.063979 -0.000000 -0.000000
2172
root 0.401166 36.459663 -0.014040 -0.604869 -16.629681 -13.070408
Spine 11.158194 11.756857 12.044003
Head -4.987806 -15.846200 2.327503
LeftShoulder -6.088762 -5.479497 2.950809
LeftArm -16.796302 -29.443873 -46.799536
LeftForeArm 17.343022 -0.000000 126.009515
LeftHand -21.457031 0.000000 30.167560
LeftHandThumb1 -26.253704 0.000000 33.147579
RightShoulder -0.058935 -19.846282 -2.090986
RightArm 9.324455 2.341961 63.135927
RightForeArm 201.501593 -0.000000 32.604695
RightHand 1.301597 -0.000000 8.453438
RightHandThumb1 -24.326973 -0.000000 -32.862282
LeftUpLeg -9.195828 15.683062 6.489890
LeftLeg 31.103584 -0.000000 -0.000000
LeftFoot -28.813393 15.351766 -10.419664
LeftToeBase 11.935309 -0.000000 -0.000000
RightUpLeg -85.798972 -28.933411 16.214728
RightLeg 101.851987 -0.000000 -0.000000
RightFoot 0.762568 -11.408075 12.034762
RightToeBase 6.237719 -0.000000 -0.000000
